<svg width="348" height="329" viewBox="0 0 348 329" fill="none" xmlns="http://www.w3.org/2000/svg">
<path fill-rule="evenodd" clip-rule="evenodd" d="M266.964 61.2136L254.934 59.5229C222.443 49.4856 222.056 36.5602 192.557 32.4143C163.058 28.2685 159.108 40.5844 125.124 41.2794L113.095 39.5887L115.12 25.1786L102.888 23.4595L98.9632 51.3856L181.058 62.9232L180.519 66.7579L162.023 64.1586C161.014 64.0213 159.985 64.3309 159.161 65.0197C158.337 65.7086 157.784 66.721 157.624 67.8364L152.633 103.346C152.476 104.463 152.727 105.591 153.33 106.482C153.933 107.372 154.839 107.952 155.849 108.094L206.983 115.28C207.993 115.422 209.024 115.115 209.849 114.425C210.674 113.735 211.226 112.72 211.383 111.603L216.373 76.0932C216.526 74.9766 216.274 73.8511 215.672 72.9618C215.069 72.0724 214.166 71.4913 213.158 71.345L194.662 68.7457L195.201 64.911L277.28 76.4464L281.205 48.5204L268.989 46.8035L266.964 61.2136ZM199.578 91.8469C199.031 95.7045 197.293 99.2712 194.659 101.94C192.025 104.608 188.658 106.213 185.132 106.481C181.606 106.749 178.139 105.664 175.321 103.411C172.502 101.157 170.508 97.8743 169.677 94.1215C168.846 90.3687 169.229 86.378 170.762 82.8291C172.295 79.2802 174.883 76.3925 178.084 74.658C181.286 72.9235 184.903 72.4493 188.32 73.3164C191.737 74.1834 194.742 76.3379 196.824 79.413C198.011 81.1594 198.865 83.1574 199.338 85.2915C199.811 87.4256 199.892 89.6536 199.578 91.8469Z" fill="#1E4AAD"/>
<path fill-rule="evenodd" clip-rule="evenodd" d="M109.821 13.823C110.875 13.9702 111.918 14.0101 112.817 13.9374C113.715 13.8647 114.428 13.6828 114.863 13.4152L138.633 17.9243C140.246 18.1509 141.822 18.1574 143.014 17.9423C144.207 17.7273 144.919 17.3083 144.994 16.7775C145.069 16.2468 144.5 15.6478 143.412 15.1122C142.325 14.5767 140.808 14.1485 139.196 13.9219L114.418 11.6443C113.964 11.3584 113.356 11.0923 112.642 10.8674C111.928 10.6425 111.129 10.4652 110.309 10.35C109.489 10.2348 108.672 10.1848 107.923 10.2042C107.175 10.2236 106.517 10.3118 106.002 10.4616L81.5561 5.82122C79.9437 5.59461 78.3677 5.58812 77.1748 5.80318C75.982 6.01824 75.2699 6.43722 75.1953 6.96796C75.1207 7.49871 75.6897 8.09773 76.7771 8.63326C77.8645 9.16878 79.3812 9.59695 80.9936 9.82355L105.086 12.0412C105.432 12.4181 106.067 12.789 106.911 13.1065C107.754 13.4239 108.767 13.6734 109.821 13.823Z" fill="#1E4AAD"/>
<path fill-rule="evenodd" clip-rule="evenodd" d="M305.082 37.2354L280.304 34.9578C279.851 34.6719 279.243 34.4057 278.529 34.1809C277.815 33.956 277.015 33.7787 276.195 33.6635C275.376 33.5483 274.558 33.4983 273.81 33.5177C273.062 33.5371 272.404 33.6253 271.889 33.775L247.443 29.1347C245.83 28.9081 244.254 28.9016 243.062 29.1167C241.869 29.3317 241.157 29.7507 241.082 30.2814C241.007 30.8122 241.576 31.4112 242.664 31.9467C243.751 32.4823 245.268 32.9104 246.88 33.137L270.973 35.3547C271.316 35.7316 271.951 36.1027 272.795 36.42C273.64 36.7372 274.654 36.986 275.708 37.134C276.761 37.2821 277.805 37.3226 278.704 37.2503C279.603 37.1781 280.315 36.9963 280.75 36.7287L304.52 41.2377C306.132 41.4644 307.708 41.4708 308.901 41.2558C310.094 41.0407 310.806 40.6217 310.881 40.091C310.955 39.5603 310.386 38.9612 309.299 38.4257C308.212 37.8902 306.695 37.462 305.082 37.2354Z" fill="#1E4AAD"/>
<rect x="147.316" y="61.4521" width="82" height="46" transform="rotate(8 147.316 61.4521)" fill="#0A112D"/>
<rect x="180.551" y="62.084" width="15" height="17" transform="rotate(8 180.551 62.084)" fill="#1E4AAD"/>
<rect x="111.23" y="52.3418" width="3" height="17" transform="rotate(8 111.23 52.3418)" fill="#1E4AAD"/>
<rect x="262.742" y="73.6348" width="3" height="17" transform="rotate(8 262.742 73.6348)" fill="#1E4AAD"/>
<rect x="32.707" y="52.8691" width="310" height="235" rx="8" transform="rotate(8 32.707 52.8691)" fill="#1E4AAD"/>
<path fill-rule="evenodd" clip-rule="evenodd" d="M39.9996 61.5692C38.9945 61.428 38.0652 62.1283 37.9239 63.1334L7.98438 276.164C7.84312 277.169 8.54343 278.099 9.54851 278.24L299.59 319.003C300.596 319.144 301.525 318.444 301.666 317.439L331.606 104.408C331.747 103.403 331.047 102.473 330.042 102.332L39.9996 61.5692ZM38.7161 63.2447C38.7959 62.6771 39.3207 62.2817 39.8882 62.3615L329.93 103.124C330.498 103.204 330.893 103.729 330.813 104.296L329.939 110.518L37.8417 69.4663L38.7161 63.2447ZM37.7304 70.2585L8.77659 276.276C8.69683 276.843 9.09228 277.368 9.65985 277.448L299.702 318.21C300.269 318.29 300.794 317.895 300.874 317.327L329.828 111.31L37.7304 70.2585Z" fill="white"/>
<rect x="131.352" y="76.7041" width="108.375" height="4.37249" rx="0.562178" transform="rotate(8 131.352 76.7041)" stroke="white" stroke-width="0.8"/>
<path d="M57.3398 67.4062L56.0699 68.3632L57.0269 69.6331" stroke="white" stroke-width="0.8" stroke-linecap="round" stroke-linejoin="round"/>
<path d="M60.9102 70.1162L62.1801 69.1593L61.2231 67.8894" stroke="white" stroke-width="0.8" stroke-linecap="round" stroke-linejoin="round"/>
<path fill-rule="evenodd" clip-rule="evenodd" d="M55.2418 65.772C54.8062 65.7108 54.4035 66.0142 54.3423 66.4498L53.8902 69.6663C53.829 70.1019 54.1325 70.5046 54.5681 70.5658L63.0424 71.7568C63.4779 71.818 63.8807 71.5146 63.9419 71.079L64.3939 67.8625C64.4551 67.4269 64.1517 67.0242 63.7161 66.963L55.2418 65.772ZM54.8062 66.515C54.8314 66.3356 54.9972 66.2107 55.1766 66.2359L59.1809 66.7987L58.6375 70.6647L54.6333 70.1019C54.4539 70.0767 54.3289 69.9109 54.3542 69.7315L54.8062 66.515ZM59.1015 70.7299L63.1076 71.2929C63.2869 71.3181 63.4528 71.1931 63.478 71.0138L63.93 67.7973C63.9552 67.6179 63.8303 67.4521 63.6509 67.4269L59.6448 66.8639L59.1015 70.7299Z" fill="white"/>
<circle cx="42.106" cy="66.522" r="1.12967" transform="rotate(8 42.106 66.522)" stroke="white" stroke-width="0.8"/>
<circle cx="46.1724" cy="67.0933" r="1.12967" transform="rotate(8 46.1724 67.0933)" stroke="white" stroke-width="0.8"/>
<circle cx="50.2427" cy="67.6655" r="1.12967" transform="rotate(8 50.2427 67.6655)" stroke="white" stroke-width="0.8"/>
</svg>
