<svg class="balloon" width="369" height="74" viewBox="0 0 369 74" fill="none" xmlns="http://www.w3.org/2000/svg">
            <path d="M23.9414 54.0986H54.3172C55.0071 54.0986 55.5664 54.6539 55.5664 55.3388V68.76C55.5664 69.445 55.0071 70.0002 54.3172 70.0002H23.9414C23.2515 70.0002 22.6922 69.445 22.6922 68.76V55.3388C22.6922 54.6539 23.2515 54.0986 23.9414 54.0986Z" fill="#5B76DC"/>
            <path fill-rule="evenodd" clip-rule="evenodd" d="M104.031 14.3447H93.6436L91.1451 37.9593L93.6436 61.4209H104.031L99.0171 37.5855L104.031 14.3447Z" fill="#1C3182"/>
            <path fill-rule="evenodd" clip-rule="evenodd" d="M91.1622 37.8916L91.1451 37.9596L93.6436 61.4212H104.031L99.0856 37.8916H91.1622Z" fill="#1C3182"/>
            <path fill-rule="evenodd" clip-rule="evenodd" d="M38.7269 12C6.96503 12 0 23.5864 0 37.891C0 52.1957 6.96503 63.7651 38.7269 63.7651C70.4888 63.7651 115 52.1787 115 37.891C115 23.6034 70.506 12 38.7269 12Z" fill="#5B76DC"/>
            <path fill-rule="evenodd" clip-rule="evenodd" d="M38.7269 23.8926C6.96503 23.8926 0 30.1954 0 37.8914C0 45.5874 6.96503 51.8223 38.7269 51.8223C70.4888 51.8223 115 45.5874 115 37.8914C115 30.1954 70.506 23.8926 38.7269 23.8926Z" fill="#1C3182"/>
            <path fill-rule="evenodd" clip-rule="evenodd" d="M115 37.8916H0C0 52.1792 6.96503 63.7657 38.7269 63.7657C70.4888 63.7657 115 52.1792 115 37.8916Z" fill="#0A112D"/>
            <path fill-rule="evenodd" clip-rule="evenodd" d="M115 37.8916H0C0 45.5876 6.96503 51.8225 38.7269 51.8225C70.4888 51.8225 115 45.5876 115 37.8916Z" fill="#132158"/>
            <path fill-rule="evenodd" clip-rule="evenodd" d="M48.5162 68.1652C48.1404 68.1684 47.7721 68.0597 47.459 67.8533C47.1458 67.6468 46.9021 67.3521 46.7592 67.0069C46.6163 66.6617 46.5808 66.282 46.6572 65.9166C46.7336 65.5512 46.9185 65.2169 47.188 64.9568C47.4575 64.6966 47.7992 64.5225 48.1693 64.4569C48.5393 64.3912 48.9207 64.4371 49.2642 64.5885C49.6078 64.7399 49.8978 64.99 50.097 65.3065C50.2961 65.623 50.3952 65.9915 50.3816 66.3644C50.364 66.8452 50.1602 67.3008 49.8128 67.6362C49.4653 67.9717 49.0009 68.1612 48.5162 68.1652Z" fill="#0A112D"/>
            <path fill-rule="evenodd" clip-rule="evenodd" d="M42.2504 68.1653C41.8781 68.1653 41.5141 68.0557 41.2045 67.8503C40.895 67.645 40.6537 67.3531 40.5112 67.0117C40.3687 66.6702 40.3315 66.2944 40.4041 65.9319C40.4767 65.5694 40.656 65.2364 40.9193 64.9751C41.1826 64.7137 41.518 64.5357 41.8831 64.4636C42.2483 64.3915 42.6268 64.4285 42.9708 64.57C43.3147 64.7114 43.6087 64.951 43.8156 65.2583C44.0224 65.5656 44.1328 65.9269 44.1328 66.2965C44.1328 66.7921 43.9345 67.2675 43.5815 67.6179C43.2284 67.9684 42.7496 68.1653 42.2504 68.1653Z" fill="#0A112D"/>
            <path fill-rule="evenodd" clip-rule="evenodd" d="M35.9886 68.1653C35.6163 68.1653 35.2523 68.0557 34.9427 67.8503C34.6332 67.645 34.3919 67.3531 34.2494 67.0117C34.1069 66.6702 34.0697 66.2944 34.1423 65.9319C34.2149 65.5694 34.3942 65.2364 34.6575 64.9751C34.9207 64.7137 35.2562 64.5357 35.6213 64.4636C35.9865 64.3915 36.365 64.4285 36.709 64.57C37.0529 64.7114 37.3469 64.951 37.5538 65.2583C37.7606 65.5656 37.871 65.9269 37.871 66.2965C37.8733 66.5426 37.8262 66.7866 37.7324 67.0143C37.6386 67.2421 37.5 67.449 37.3248 67.623C37.1495 67.797 36.9411 67.9345 36.7116 68.0277C36.4822 68.1208 36.2364 68.1676 35.9886 68.1653Z" fill="#0A112D"/>
            <path fill-rule="evenodd" clip-rule="evenodd" d="M29.7428 68.1652C29.3669 68.1684 28.9987 68.0597 28.6856 67.8533C28.3724 67.6468 28.1287 67.3521 27.9858 67.0069C27.8429 66.6617 27.8074 66.282 27.8838 65.9166C27.9602 65.5512 28.1451 65.2169 28.4146 64.9568C28.684 64.6966 29.0258 64.5225 29.3959 64.4569C29.7659 64.3912 30.1473 64.4371 30.4908 64.5885C30.8344 64.7399 31.1244 64.99 31.3235 65.3065C31.5227 65.623 31.6218 65.9915 31.6081 66.3644C31.5905 66.8452 31.3868 67.3008 31.0393 67.6362C30.6919 67.9717 30.2275 68.1612 29.7428 68.1652Z" fill="#0A112D"/>
            <path d="M154.25 50.301L116.61 38L154.25 25.699L154.25 50.301Z" stroke="#0A112D"/>
            <path d="M154 5C154 5 186.767 7.9624 207.75 7C228.896 6.03014 240.332 0 261.5 0C282.668 0 294.104 6.03014 315.25 7C336.233 7.9624 369 5 369 5V71C369 71 336.233 73.9624 315.25 73C294.104 72.0301 282.668 66 261.5 66C240.332 66 228.896 72.0301 207.75 73C186.767 73.9624 154 71 154 71V5Z" fill="#0A112D"/>
</svg> 