<svg width="678" height="32" viewBox="0 0 678 32" fill="none" xmlns="http://www.w3.org/2000/svg">
<path fill-rule="evenodd" clip-rule="evenodd" d="M596.598 9.12392C597.948 9.02752 599.409 8.93098 600.759 8.83458C605.503 12.3371 609.893 15.928 615.367 19.248C620.96 19.0073 626.619 18.9654 632.211 18.7241C630.427 17.519 628.577 16.1145 626.793 14.9091C627.286 14.6436 629.506 14.5771 630.397 14.71C633.772 15.8671 637.014 17.2232 640.389 18.3806C643.185 18.2839 645.981 18.1876 648.778 18.0912C650.079 18.0429 651.381 17.9947 652.682 17.9466C658.661 16.6465 664.498 16.1084 670.476 16.3974C671.781 16.677 676.744 19.3022 677.849 20.4462C678.678 22.135 675.852 23.1037 675.245 23.4425C670.692 24.7168 665.242 25.6747 657.311 25.7565C653.736 26.1978 650.968 26.3286 647.641 26.5215C648.908 26.7782 649.219 27.252 650.224 27.3476C650.809 27.4795 650.835 30.2604 650.288 30.585C649.461 30.7611 648.617 30.7338 647.603 30.6627C647.493 30.5764 647.419 30.3823 647.14 30.3475C645.931 30.1969 642.152 30.122 641.654 29.4511C641.666 28.8716 642.954 28.7961 644.005 28.5048C642.125 28.071 640.968 27.7962 639.087 27.3621C637.738 27.4493 635.999 27.6294 634.649 27.7817C636.192 27.8553 637.358 28.5148 638.901 28.7557C639.311 28.8072 639.5 30.961 638.984 31.7703C638.114 31.9672 636.904 32.0269 635.775 31.9582C635.683 31.9008 635.684 31.754 635.646 31.6684C634.676 31.6795 633.528 31.6463 632.561 31.5672C632.055 31.5105 631.566 31.4387 631.051 31.3036C630.655 31.1872 630.253 31.0079 630.184 30.7244C630.338 30.2906 631.156 30.088 631.65 29.9511C630.085 28.8389 628.535 28.6089 627.083 28.5048C624.482 28.5526 619.91 28.5513 617.927 28.6703C615.918 28.5939 615.202 28.4806 614.066 28.3601C617.447 28.1671 620.779 27.9556 624.275 27.7629C623.803 27.8593 632.36 27.0703 632.869 26.626C632.785 26.6255 632.688 26.6229 632.579 26.6246C622.272 27.1578 612.638 24.992 602.116 23.037C600.611 23.1567 598.678 23.3437 597.306 23.4442C597.177 23.4595 596.513 23.2886 596.013 23.157C596.005 23.1172 595.983 23.0219 596.024 22.9886C596.032 22.9837 596.04 22.98 596.05 22.9781C597.032 22.8214 599.633 22.4001 600.035 22.3349C599.561 21.4417 599.415 19.8646 601.594 19.8194C600.003 16.3967 598.189 12.5469 596.598 9.12392" fill="#2541AC"/>
<path fill-rule="evenodd" clip-rule="evenodd" d="M596.609 9.13032C597.928 9.03691 599.445 8.92786 600.759 8.83402C605.503 12.3365 609.892 15.9274 615.367 19.2474C616.496 19.3764 604.043 19.8803 601.592 19.8224C601.588 19.8099 601.553 19.7191 601.538 19.6987C600.25 16.9291 598.82 13.8881 597.483 11.024C597.215 10.3927 596.88 9.75478 596.609 9.13032" fill="#2541AC"/>
<path fill-rule="evenodd" clip-rule="evenodd" d="M632.174 18.6987C630.402 17.4992 628.565 16.1061 626.794 14.9089C627.286 14.6435 629.506 14.5769 630.397 14.7099C633.772 15.8666 637.013 17.2225 640.387 18.3795C637.707 18.4916 634.771 18.5784 632.174 18.6987" fill="#2541AC"/>
<path fill-rule="evenodd" clip-rule="evenodd" d="M596.051 22.9778C596.417 22.9263 596.8 22.8556 597.168 22.7988C599.64 22.4166 602.139 21.9458 604.595 21.602C605.489 21.4266 610.561 21.6056 610.516 21.9359C610.542 22.1188 600.182 22.99 597.174 23.2455C596.952 23.2321 596.339 23.073 596.024 22.9891C596.028 22.9866 596.035 22.981 596.051 22.9778" fill="#2541AC"/>
<path fill-rule="evenodd" clip-rule="evenodd" d="M596.012 23.1572C596.002 23.1284 595.99 23.0106 596.02 22.9919C596.021 22.9908 596.023 22.9902 596.024 22.9897C596.34 23.0738 596.952 23.2326 597.174 23.246C600.182 22.9905 610.542 22.1194 610.516 21.9364C610.518 21.925 610.513 21.9139 610.503 21.903C610.505 21.9035 610.507 21.9038 610.508 21.9041C610.743 21.9388 610.753 22.1211 610.656 22.146C610.682 22.3289 600.321 23.2002 597.314 23.4554C597.087 23.4418 596.321 23.2396 596.012 23.1572" fill="#0E1943"/>
<path fill-rule="evenodd" clip-rule="evenodd" d="M678 21.6469C677.356 22.4479 675.646 23.2184 675.245 23.4423C670.692 24.7167 665.242 25.6746 657.311 25.7563C653.736 26.1976 650.968 26.3284 647.641 26.5214C645.545 26.727 632.746 26.6361 632.578 26.6245C626.389 26.9448 620.442 26.2912 614.399 25.2948C617.041 25.2676 619.732 25.2041 622.336 25.2041C626.479 24.9945 630.681 25.0218 634.824 24.8128C641.813 24.5617 648.802 24.3106 655.79 24.0595C660.062 23.4423 663.65 23.1844 668.262 22.6719C672.875 22.1594 676.012 21.3027 678 20.6219" fill="#0E1943"/>
<path fill-rule="evenodd" clip-rule="evenodd" d="M650.224 27.3477C650.809 27.4797 650.835 30.2606 650.288 30.5852C649.461 30.7612 648.617 30.7339 647.603 30.6628C647.493 30.5765 647.419 30.3824 647.14 30.3476C645.931 30.197 642.152 30.1221 641.654 29.4513C641.666 28.8718 642.955 28.7963 644.005 28.5049C644.295 28.4047 644.928 28.3286 645.178 28.2861C645.79 28.216 646.663 28.1245 647.288 28.1098C647.323 27.975 647.34 27.8381 647.419 27.6699C648.424 27.3905 649.238 27.2779 650.224 27.3477Z" fill="#2541AC"/>
<path fill-rule="evenodd" clip-rule="evenodd" d="M650.649 29.5871C650.596 30.0718 650.476 30.4737 650.288 30.5852C649.461 30.7612 648.617 30.7339 647.603 30.6628C647.493 30.5765 647.419 30.3824 647.14 30.3476C645.931 30.197 642.152 30.1221 641.654 29.4513C642.205 29.818 647.051 30.2184 647.448 29.8652C648.985 29.9171 650.21 29.8713 650.649 29.5871" fill="black"/>
<path fill-rule="evenodd" clip-rule="evenodd" d="M650.31 27.3877C650.811 27.7578 650.808 30.2767 650.288 30.5844C650.282 30.5856 650.276 30.5871 650.269 30.5886C650.165 30.2217 650.099 29.6686 650.099 29.0517C650.099 28.3585 650.183 27.746 650.31 27.3877" fill="#9D9D9D"/>
<path fill-rule="evenodd" clip-rule="evenodd" d="M647.426 27.7618C647.173 28.3518 647.245 29.3296 647.404 29.7914C647.383 29.2026 647.331 28.4623 647.426 27.7618Z" fill="#151515"/>
<path fill-rule="evenodd" clip-rule="evenodd" d="M647.425 28.0493C648.29 27.9731 649.29 27.9221 650.155 27.8459C650.134 28.0061 650.115 28.1637 650.115 28.3021C649.278 28.3594 648.241 28.3916 647.405 28.4487C647.395 28.3156 647.402 28.1275 647.425 28.0493Z" fill="#2541AC"/>
<path fill-rule="evenodd" clip-rule="evenodd" d="M638.561 28.695C638.672 28.7172 638.786 28.7375 638.901 28.7557C639.311 28.8072 639.5 30.961 638.985 31.7703C638.115 31.9672 636.904 32.0269 635.776 31.9582C635.684 31.9008 635.684 31.754 635.646 31.6684C634.661 31.6798 633.492 31.6453 632.515 31.5632C632.009 31.502 631.591 31.4323 631.23 31.3525C630.784 31.2388 630.263 31.0508 630.185 30.7244C630.338 30.2906 631.157 30.088 631.65 29.9511C631.618 29.9128 633.581 29.7002 633.923 29.6593C634.534 29.5889 634.91 29.4975 635.536 29.4826C635.57 29.3478 635.587 29.0731 635.666 28.9046C636.534 28.6633 637.703 28.6493 638.561 28.695Z" fill="#2541AC"/>
<path fill-rule="evenodd" clip-rule="evenodd" d="M639.246 30.9694C639.197 31.2843 639.112 31.5689 638.984 31.7703C638.114 31.9672 636.904 32.0269 635.775 31.9582C635.683 31.9008 635.684 31.754 635.646 31.6684C634.661 31.6798 633.492 31.6453 632.515 31.5632C632.009 31.502 631.591 31.4323 631.23 31.3525C630.794 31.2413 630.285 31.0591 630.19 30.7453C630.872 31.2361 635.113 31.555 635.711 31.1491C636.786 31.3431 638.449 31.1924 639.246 30.9694Z" fill="black"/>
<path fill-rule="evenodd" clip-rule="evenodd" d="M635.737 28.9699C635.484 29.5601 635.556 30.538 635.716 30.9996C635.694 30.4107 635.642 29.6707 635.737 28.9699" fill="#151515"/>
<path fill-rule="evenodd" clip-rule="evenodd" d="M635.786 29.2739C636.652 29.1979 637.923 29.2023 638.789 29.1264C638.767 29.2866 638.722 29.4442 638.723 29.5827L635.765 29.6731C635.756 29.5403 635.763 29.3523 635.786 29.2739" fill="#2541AC"/>
<path fill-rule="evenodd" clip-rule="evenodd" d="M638.94 28.7673C639.323 28.9476 639.483 30.9873 638.984 31.7702C638.948 31.7785 638.91 31.7864 638.872 31.7942C638.789 31.4345 638.739 30.9441 638.739 30.4048C638.739 29.7286 638.818 29.129 638.94 28.7673Z" fill="#9D9D9D"/>
<path fill-rule="evenodd" clip-rule="evenodd" d="M631.226 30.0708C631.266 30.0586 631.305 30.0471 631.344 30.036C631.305 30.0471 631.266 30.0586 631.226 30.0708ZM631.346 30.0357C631.354 30.0333 631.363 30.0307 631.371 30.0283L631.346 30.0357ZM631.373 30.028C631.394 30.0219 631.414 30.0161 631.434 30.0102C631.414 30.0161 631.394 30.0219 631.373 30.028ZM631.441 30.0084C631.444 30.0075 631.448 30.0067 631.451 30.0058C631.448 30.0067 631.444 30.0075 631.441 30.0084ZM631.65 29.9508C630.104 28.8522 628.573 28.6142 627.136 28.5084C627.144 28.5075 627.084 28.5048 627.092 28.5041C627.106 28.5048 627.181 28.5024 627.192 28.503C629.607 28.2749 632.022 28.047 634.438 27.8188C635.386 28.0014 636.356 28.2402 637.476 28.6781C636.853 28.6929 636.202 28.7552 635.665 28.9044C635.587 29.0728 635.57 29.3475 635.535 29.4823C634.91 29.4972 634.534 29.5887 633.922 29.659C633.581 29.7 631.618 29.9126 631.65 29.9508" fill="#0E1943"/>
<path fill-rule="evenodd" clip-rule="evenodd" d="M643.47 28.6348C643.568 28.6129 643.667 28.5905 643.764 28.5668C643.667 28.5905 643.569 28.6132 643.471 28.6348H643.47ZM644.004 28.5047C642.138 28.0741 640.985 27.8002 639.13 27.3721C639.136 27.3712 639.142 27.3706 639.147 27.3701C641.706 27.1042 644.804 26.8191 647.185 26.5697C647.88 26.7441 648.463 27.0092 649.283 27.3381C648.675 27.3712 648.089 27.4832 647.418 27.6696C647.339 27.8378 647.322 27.9748 647.288 28.1095C646.662 28.1242 645.789 28.2158 645.178 28.2859C644.928 28.3284 644.294 28.4044 644.004 28.5047Z" fill="#0E1943"/>
<path fill-rule="evenodd" clip-rule="evenodd" d="M670.559 16.8466C667.93 16.7057 665.248 16.5938 662.863 16.8585C659.8 17.0843 655.525 18.0286 652.785 18.2253C647.278 18.7755 642.365 18.6311 637.274 18.8396C631.44 19.0178 625.607 19.1961 619.773 19.3742C618.493 19.4391 617.213 19.5038 615.933 19.5689C610.754 19.8702 605.704 20.0428 600.668 20.2009C600.02 20.2462 599.88 20.6472 600.428 20.6419C605.542 20.4687 610.436 20.3254 615.592 20.0234C620.502 19.8778 625.252 19.7615 630.272 19.506C634.76 19.4413 639.19 19.1748 643.679 19.1098C649.059 18.9478 650.387 18.9015 652.713 18.7394C654.064 18.5495 662.065 17.4237 663.689 17.3206C665.625 17.1734 668.028 17.2525 670.126 17.4299C670.032 16.7172 670.324 16.9243 670.559 16.8466" fill="#2541AC"/>
<path fill-rule="evenodd" clip-rule="evenodd" d="M648.535 26.47C648.528 26.4703 648.521 26.471 648.514 26.4713C648.223 26.4877 647.932 26.5042 647.642 26.5215C645.21 26.7817 641.873 27.0871 639.148 27.3702C639.126 27.3727 639.109 27.3672 639.087 27.3621C637.738 27.4492 635.999 27.6294 634.649 27.7817L634.438 27.8191C632.024 28.047 629.609 28.2749 627.195 28.5029C627.158 28.5035 627.12 28.5041 627.083 28.5048C624.482 28.5526 619.911 28.5513 617.927 28.6703C615.918 28.5939 615.202 28.4806 614.066 28.36C617.448 28.1671 620.779 27.9555 624.275 27.7629C624.224 27.7682 624.222 27.7697 624.259 27.7673C624.143 27.8274 632.253 27.0722 632.856 26.6351C632.86 26.633 632.866 26.6307 632.87 26.6284C638.158 25.63 643.679 25.1921 649.036 24.5225C650.156 24.3786 651.743 24.203 652.875 24.4308C654.05 24.7188 653.467 25.7722 652.29 25.9423C651.154 26.1317 650.085 26.3018 649.027 26.4419C648.864 26.4514 648.7 26.4607 648.535 26.47" fill="#2541AC"/>
<circle  cx="597" cy="9" r="9" fill="url(#paint0_radial_360:492)"/>
<rect width="600" height="2" transform="matrix(-1 0 0 1 600 21)" fill="url(#paint1_linear_360:492)"/>
<defs>
<radialGradient id="paint0_radial_360:492" cx="0" cy="0" r="1" gradientUnits="userSpaceOnUse" gradientTransform="translate(597 9) rotate(90) scale(9)">
<stop offset="0.197923" stop-color="#05FF05"/>
<stop offset="1" stop-color="#39FE39" stop-opacity="0"/>
</radialGradient>
<linearGradient id="paint1_linear_360:492" x1="-1.66341e-10" y1="1.00008" x2="600" y2="1.00137" gradientUnits="userSpaceOnUse">
<stop stop-color="#1D47A5"/>
<stop offset="1" stop-color="#204CAE" stop-opacity="0"/>
</linearGradient>
</defs>
</svg>
