<svg width="1440" height="698" viewBox="0 0 1440 698" fill="none" xmlns="http://www.w3.org/2000/svg">
<path d="M1249.39 351.191H1251.77V336.604H1249.39V351.191ZM1286.81 351.191H1291.85V336.604H1286.81V351.191ZM727.363 205.945V178.923H730.927V161.643H739.614V134.231H743.177V161.643H750.526V178.923H756.093V172.687H758.32V155.464H762.774V172.687H773.019V178.923H777.25V205.945H785.714V301.564H793.731V268.306H847.18V196.741H852.674V161.643H855.346V137.127H856.98V126.659H860.543V137.127H862.77V161.643H872.273V137.127H873.905V126.659H877.469V137.127H879.696V161.643H883.853V196.741H893.058V259.247H901.373V268.306H916.22V311.66H924.239V291.17H950.963V247.816H957.05V239.501H959.871V234.156H961.504V222.575H966.552V234.156H971.155V239.501H985.259V247.816H992.534V318.787H1012.61C1018.65 254.202 1019.2 182.725 1019.26 171.648H1012.26V166.803L1007.92 161.643V155.464L1015.33 148.689H1012.26V143.845H1018.48V139.002H1020.97V134.231H1023.86V97.4678L1020.11 93.7903V91.9522V89.9479L1023.86 86.3283V59.5477H1025.77V49.8602H1030.27V59.5477H1032.18V86.3283L1036.04 90.1157V91.9522V93.9566L1032.29 97.5762H1032.18V134.231H1035.07V139.002H1037.56V143.845H1043.78V148.689H1040.49L1048.12 155.464V161.643L1043.78 166.803V171.648H1037.48C1037.53 182.551 1038.07 251.975 1043.85 315.744H1056.68V283.599H1075.98V331.928H1081.62V321.461H1094.26C1098.9 300.106 1129.78 283.599 1167.21 283.599C1204.64 283.599 1235.53 300.106 1240.16 321.461H1249.39V330.665H1251.77V301.564H1254.29V277.214L1279.53 288.424V301.564H1286.81V330.665H1291.85V273.056H1295.42V244.846H1302.97V240.636H1313.36V244.846H1323.03V262.388H1333.4V273.056H1340.26V317.341H1348.1V299.384H1353.64V232.743H1359.19V212.979H1361.81V211.352L1364.52 209.278V190.203H1365.65V208.415L1369.49 205.478V212.979H1371.75V232.743H1377.02V296.402H1382.5V305.169H1391V314.388H1394.8V321.618H1400.49V330.596H1409.56V324.571H1411.73V308.422H1413.41V297.938H1415.46V293.118H1416.07V287.574H1417.75V293.118H1420.04V297.938H1428.6V308.422H1430.77V324.571H1431.73V330.596H1437.76V333.488H1443.29V494.482H720.237V205.945H727.363Z" fill="#1E4AAD"/>
<path d="M1056.69 283.547H1065.37V242.324H1056.69V283.547Z" fill="#1E4AAD"/>
<path d="M1059.84 242.458H1063.33V225.706H1059.84V242.458Z" fill="#1E4AAD"/>
<path d="M1026.79 16.6367H1029.25V51.6775H1026.79V16.6367Z" fill="#1E4AAD"/>
<path d="M1088.6 462.357C1088.6 462.353 1088.6 462.349 1088.6 462.341C1088.6 462.349 1088.6 462.353 1088.6 462.357Z" fill="#1E4AAD"/>
<path d="M1088.48 463.106C1088.48 463.106 1088.48 463.106 1088.48 463.106C1088.53 462.892 1088.56 462.679 1088.59 462.471C1088.56 462.681 1088.53 462.895 1088.48 463.106Z" fill="#1E4AAD"/>
<path d="M1087.71 465.283C1087.71 465.273 1087.72 465.264 1087.72 465.253C1087.72 465.264 1087.71 465.273 1087.71 465.283Z" fill="#1E4AAD"/>
<path d="M1087.78 465.138C1087.8 465.098 1087.82 465.058 1087.84 465.019C1087.82 465.06 1087.8 465.098 1087.78 465.138Z" fill="#1E4AAD"/>
<path d="M1088.27 463.944C1088.15 464.306 1088.01 464.657 1087.85 464.991C1088.02 464.65 1088.15 464.298 1088.26 463.944H1088.27Z" fill="#1E4AAD"/>
<path d="M714.762 351.049V345.091H706.817V311.617H703.726V297.921H701.079V291.822H697.119V297.921H690.513V311.617H681.99V320.1H674.596V326.581H666.762V248.488H653.412V236.13H650.376V233.537H647.893V230.226H628.86V233.537H627.121V236.13H625.163V302.886H609.164V326.581H600.668V248.488H598.791V244.735H596.71V243.259H589.178V244.735H587.606V242.805H581.896V238.335H579.372V242.805H578.957V244.735H577.164V248.488H573.524V348.401H566.943V343.933H562.558V338.802H561.896V316.788H551.137V338.802H548.82V343.933H547.329V324.319H538.061V300.817H536.959V221.123H538.171V215.936H505.952V221.123H506.945V300.817H501.979V208.296H497.346V192.324H484.313L478.147 185.806V164.187H476.325V183.881V192.324V200.434V204.075V208.296H471.194V258.528H454.975V332.678H437.429V238.335H413.596V208.212H412.107V204.075H390.423V208.212H388.108V293.699H371.971V303.699H363.281V241.729H354.011V177.427H350.37V173.951L331.336 167.993V177.427H326.868V263.493H321.902V300.817H317.268V193.978H291.117V273.754H283.834V278.06H273.242V266.804H261.765V239.081H252.607V233.537L228.332 228.516V239.081H223.367V298.14H207.202V220.295H200.582V208.212L178.071 212.516V220.295H171.451V301.231H162.844V212.516H160.693V211.303H159.038V202.917H134.211V248.488H123.176V236.13H120.142V233.537H117.659V230.226H98.625V233.537H96.8875V236.13H94.9291V345.809H70.4326V248.488H68.5572V244.735H66.4745V243.259H58.944V244.735H57.3713V242.805H51.6608V238.335H49.1374V242.805H48.7234V244.735H46.93V248.488H43.2886V324.319H33.0828V343.933H31.5926V338.802H29.2761V316.788H18.5166V338.802H17.8551V343.933H13.4688V348.401H6.60027V351.049H-3V469.933H720.057V351.049H714.762Z" fill="#1E4AAD"/>
<rect x="0.236328" y="456" width="576" height="38" fill="#1E4AAD"/>
<rect x="753.236" y="474" width="576" height="38" fill="#1E4AAD"/>
<circle cx="1028" cy="17" r="17" fill="url(#paint0_radial_360:439)"/>
<path d="M463.286 404.495H452.821V354.775H463.286V404.495Z" fill="#0A112D"/>
<path d="M459.492 354.935H455.276V334.73H459.492V354.935Z" fill="#0A112D"/>
<path d="M499.357 82.5683H496.383V124.832H499.357V82.5683Z" fill="#0A112D"/>
<path d="M230.871 486.081H228.006V468.488H230.871V486.081ZM185.744 486.081H179.655V468.488H185.744V486.081ZM860.497 310.897V278.306H856.2V257.464H845.722V224.402H841.425V257.464H832.561V278.306H825.846V270.785H823.16V250.011H817.788V270.785H805.432V278.306H800.328V310.897H790.12V426.225H780.45V386.112H715.985V299.796H709.359V257.464H706.135V227.895H704.164V215.269H699.867V227.895H697.181V257.464H685.72V227.895H683.75V215.269H679.453V227.895H676.767V257.464H671.752V299.796H660.651V375.186H650.621V386.112H632.714V438.403H623.042V413.689H590.81V361.399H583.469V351.37H580.066V344.923H578.097V330.956H572.008V344.923H566.456V351.37H549.445V361.399H540.67V446.998H516.455C509.177 369.101 508.504 282.891 508.441 269.531H516.874V263.688L522.117 257.464V250.011L513.181 241.84H516.874V235.997H509.376V230.156H506.377V224.402H502.886V180.061L507.407 175.625V173.409V170.991L502.886 166.626V134.325H500.58V122.641H495.162V134.325H492.856V166.626L488.201 171.194V173.409V175.826L492.722 180.192H492.856V224.402H489.365V230.156H486.366V235.997H478.866V241.84H482.829L473.623 250.011V257.464L478.866 263.688V269.531H486.459C486.4 282.682 485.745 366.415 478.783 443.328H463.308V404.557H440.03V462.847H433.225V450.223H417.972C412.383 424.467 375.138 404.557 329.988 404.557C284.84 404.557 247.593 424.467 242.006 450.223H230.871V461.325H228.006V426.225H224.962V396.856L194.517 410.377V426.225H185.744V461.325H179.655V391.842H175.357V357.816H166.251V352.739H153.714V357.816H142.049V378.975H129.55V391.842H121.277V445.254H111.818V423.596H105.132V343.219H98.4454V319.381H95.2841V317.419L92.0137 314.918V291.91H90.6512V313.877L86.0181 310.334V319.381H83.2928V343.219H76.934V420H70.3204V430.573H60.0733V441.692H55.4949V450.413H48.6271V461.241H37.6899V453.975H35.0736V434.497H33.0385V421.852H30.568V416.039H29.8411V409.351H27.8059V416.039H25.0445V421.852H14.7246V434.497H12.1083V453.975H10.946V461.241H3.67832V464.729H-3V658.908H869.093V310.897H860.497Z" fill="#0A112D"/>
<path d="M424.8 620.161C424.799 620.156 424.799 620.151 424.799 620.142C424.799 620.151 424.799 620.156 424.8 620.161Z" fill="#0A112D"/>
<path d="M424.944 621.063C424.945 621.063 424.945 621.063 424.945 621.063C424.891 620.806 424.849 620.549 424.818 620.298C424.849 620.552 424.891 620.809 424.944 621.063Z" fill="#0A112D"/>
<path d="M425.878 623.687C425.873 623.675 425.868 623.664 425.861 623.651C425.868 623.664 425.873 623.675 425.878 623.687Z" fill="#0A112D"/>
<path d="M425.789 623.513C425.764 623.465 425.74 623.416 425.718 623.369C425.74 623.419 425.764 623.465 425.789 623.513Z" fill="#0A112D"/>
<path d="M425.207 622.072C425.344 622.509 425.51 622.933 425.704 623.336C425.508 622.924 425.344 622.5 425.21 622.072H425.207Z" fill="#0A112D"/>
<mask id="mask0_360:439" style="mask-type:alpha" maskUnits="userSpaceOnUse" x="1166" y="181" width="278" height="478">
<rect x="1166.81" y="181.119" width="276.667" height="477.88" fill="#C4C4C4"/>
</mask>
<g mask="url(#mask0_360:439)">
<path d="M914.141 515.677H911.765V501.09H914.141V515.677ZM876.726 515.677H871.677V501.09H876.726V515.677ZM1436.17 370.431V343.409H1432.6V326.129H1423.92V298.716H1420.35V326.129H1413.01V343.409H1407.44V337.173H1405.21V319.95H1400.76V337.173H1390.51V343.409H1386.28V370.431H1377.82V466.049H1369.8V432.791H1316.35V361.226H1310.86V326.129H1308.19V301.613H1306.55V291.145H1302.99V301.613H1300.76V326.129H1291.26V301.613H1289.63V291.145H1286.06V301.613H1283.84V326.129H1279.68V361.226H1270.47V423.733H1262.16V432.791H1247.31V476.146H1239.29V455.656H1212.57V412.301H1206.48V403.986H1203.66V398.641H1202.03V387.061H1196.98V398.641H1192.38V403.986H1178.27V412.301H1171V483.272H1150.92C1144.89 418.687 1144.33 347.21 1144.28 336.133H1151.27V331.289L1155.61 326.129V319.95L1148.21 313.175H1151.27V308.33H1145.05V303.487H1142.56V298.716H1139.67V261.953L1143.42 258.276V256.438V254.433L1139.67 250.814V224.033H1137.76V214.346H1133.27V224.033H1131.35V250.814L1127.49 254.601V256.438V258.442L1131.24 262.062H1131.35V298.716H1128.46V303.487H1125.97V308.33H1119.76V313.175H1123.04L1115.41 319.95V326.129L1119.76 331.289V336.133H1126.05C1126 347.037 1125.46 416.46 1119.69 480.23H1106.86V448.084H1087.56V496.413H1081.91V485.946H1069.27C1064.63 464.591 1033.75 448.084 996.319 448.084C958.887 448.084 928.005 464.591 923.373 485.946H914.141V495.151H911.765V466.049H909.242V441.699L884 452.91V466.049H876.726V495.151H871.677V437.542H868.114V409.331H860.563V405.121H850.17V409.331H840.498V426.874H830.135V437.542H823.275V481.826H815.433V463.87H809.89V397.229H804.346V377.465H801.725V375.838L799.013 373.764V354.688H797.884V372.901L794.042 369.964V377.465H791.783V397.229H786.511V460.888H781.027V469.654H772.531V478.873H768.735V486.104H763.041V495.081H753.973V489.057H751.804V472.908H750.117V462.424H748.068V457.604H747.466V452.059H745.778V457.604H743.489V462.424H734.932V472.908H732.763V489.057H731.8V495.081H725.774V497.974H720.237V658.968H1443.29V370.431H1436.17Z" fill="#0A112D"/>
</g>
<mask id="mask1_360:439" style="mask-type:alpha" maskUnits="userSpaceOnUse" x="869" y="144" width="298" height="515">
<rect x="869.093" y="144.676" width="297.713" height="514.231" fill="#C4C4C4"/>
</mask>
<g mask="url(#mask1_360:439)">
<path d="M1072.22 504.682H1069.67V488.985H1072.22V504.682ZM1031.96 504.682H1026.53V488.985H1031.96V504.682ZM1633.96 348.387V319.309H1630.13V300.715H1620.78V271.218H1616.94V300.715H1609.03V319.309H1603.04V312.6H1600.65V294.066H1595.85V312.6H1584.83V319.309H1580.28V348.387H1571.17V451.279H1562.54V415.491H1505.03V338.482H1499.12V300.715H1496.24V274.335H1494.48V263.07H1490.65V274.335H1488.25V300.715H1478.03V274.335H1476.27V263.07H1472.44V274.335H1470.04V300.715H1465.57V338.482H1455.66V405.744H1446.71V415.491H1430.74V462.144H1422.11V440.095H1393.35V393.443H1386.8V384.495H1383.77V378.744H1382.01V366.282H1376.58V378.744H1371.62V384.495H1356.45V393.443H1348.62V469.812H1327.01C1320.52 400.315 1319.92 323.401 1319.86 311.481H1327.39V306.268L1332.07 300.715V294.066L1324.09 286.776H1327.39V281.563H1320.7V276.351H1318.02V271.218H1314.91V231.658L1318.94 227.701V225.723V223.566L1314.91 219.671V190.854H1312.85V180.429H1308.02V190.854H1305.96V219.671L1301.81 223.747V225.723V227.88L1305.84 231.775H1305.96V271.218H1302.84V276.351H1300.17V281.563H1293.48V286.776H1297.01L1288.8 294.066V300.715L1293.48 306.268V311.481H1300.25C1300.2 323.214 1299.62 397.918 1293.4 466.538H1279.6V431.947H1258.83V483.953H1252.76V472.69H1239.15C1234.16 449.71 1200.93 431.947 1160.65 431.947C1120.37 431.947 1087.14 449.71 1082.16 472.69H1072.22V482.594H1069.67V451.279H1066.95V425.077L1039.79 437.14V451.279H1031.96V482.594H1026.53V420.603H1022.7V390.247H1014.57V385.717H1003.39V390.247H992.979V409.124H981.828V420.603H974.446V468.256H966.007V448.934H960.042V377.223H954.076V355.956H951.256V354.205L948.338 351.974V331.447H947.123V351.045L942.989 347.884V355.956H940.558V377.223H934.885V445.725H928.984V455.158H919.842V465.079H915.757V472.859H909.63V482.52H899.872V476.037H897.538V458.66H895.722V447.378H893.518V442.191H892.87V436.225H891.054V442.191H888.59V447.378H879.383V458.66H877.049V476.037H876.012V482.52H869.528V485.632H863.57V658.872H1641.63V348.387H1633.96Z" fill="#0A112D"/>
</g>
<rect x="-3" y="658" width="1446" height="40" fill="#0A112D"/>
<circle cx="498" cy="82" r="17" fill="url(#paint1_radial_360:439)"/>
<defs>
<radialGradient id="paint0_radial_360:439" cx="0" cy="0" r="1" gradientUnits="userSpaceOnUse" gradientTransform="translate(1028 17) rotate(90) scale(17)">
<stop offset="0.203085" stop-color="#FF0A0A"/>
<stop offset="1" stop-color="#FF0F0F" stop-opacity="0"/>
</radialGradient>
<radialGradient id="paint1_radial_360:439" cx="0" cy="0" r="1" gradientUnits="userSpaceOnUse" gradientTransform="translate(498 82) rotate(90) scale(17)">
<stop offset="0.203085" stop-color="#FF0A0A"/>
<stop offset="1" stop-color="#FF0F0F" stop-opacity="0"/>
</radialGradient>
</defs>
</svg>
