<svg width="1440" height="512" viewBox="0 0 1440 512" fill="none" xmlns="http://www.w3.org/2000/svg">
<path d="M1249.39 351.191H1251.77V336.604H1249.39V351.191ZM1286.81 351.191H1291.85V336.604H1286.81V351.191ZM727.363 205.945V178.923H730.927V161.643H739.614V134.231H743.177V161.643H750.526V178.923H756.093V172.687H758.32V155.464H762.774V172.687H773.019V178.923H777.25V205.945H785.714V301.564H793.731V268.306H847.18V196.741H852.674V161.643H855.346V137.127H856.98V126.659H860.543V137.127H862.77V161.643H872.273V137.127H873.905V126.659H877.469V137.127H879.696V161.643H883.853V196.741H893.058V259.247H901.373V268.306H916.22V311.66H924.239V291.17H950.963V247.816H957.05V239.501H959.871V234.156H961.504V222.575H966.552V234.156H971.155V239.501H985.259V247.816H992.534V318.787H1012.61C1018.65 254.202 1019.2 182.725 1019.26 171.648H1012.26V166.803L1007.92 161.643V155.464L1015.33 148.689H1012.26V143.845H1018.48V139.002H1020.97V134.231H1023.86V97.4677L1020.11 93.7903V91.9522V89.9479L1023.86 86.3283V59.5477H1025.77V49.8602H1030.27V59.5477H1032.18V86.3283L1036.04 90.1157V91.9522V93.9566L1032.29 97.5762H1032.18V134.231H1035.07V139.002H1037.56V143.845H1043.78V148.689H1040.49L1048.12 155.464V161.643L1043.78 166.803V171.648H1037.48C1037.53 182.551 1038.07 251.975 1043.85 315.744H1056.68V283.599H1075.98V331.928H1081.62V321.461H1094.26C1098.9 300.106 1129.78 283.599 1167.21 283.599C1204.64 283.599 1235.53 300.106 1240.16 321.461H1249.39V330.665H1251.77V301.564H1254.29V277.214L1279.53 288.424V301.564H1286.81V330.665H1291.85V273.056H1295.42V244.846H1302.97V240.636H1313.36V244.846H1323.03V262.388H1333.4V273.056H1340.26V317.341H1348.1V299.384H1353.64V232.743H1359.19V212.979H1361.81V211.352L1364.52 209.278V190.203H1365.65V208.415L1369.49 205.478V212.979H1371.75V232.743H1377.02V296.402H1382.5V305.169H1391V314.388H1394.8V321.618H1400.49V330.596H1409.56V324.571H1411.73V308.423H1413.41V297.938H1415.46V293.118H1416.07V287.574H1417.75V293.118H1420.04V297.938H1428.6V308.423H1430.77V324.571H1431.73V330.596H1437.76V333.488H1443.29V494.482H720.237V205.945H727.363Z" fill="#1E4AAD"/>
<path d="M1056.69 283.547H1065.37V242.324H1056.69V283.547Z" fill="#1E4AAD"/>
<path d="M1059.84 242.458H1063.33V225.706H1059.84V242.458Z" fill="#1E4AAD"/>
<path d="M1026.79 16.6367H1029.25V51.6775H1026.79V16.6367Z" fill="#1E4AAD"/>
<path d="M1088.6 462.357C1088.6 462.353 1088.6 462.349 1088.6 462.341C1088.6 462.349 1088.6 462.353 1088.6 462.357Z" fill="#1E4AAD"/>
<path d="M1088.48 463.106C1088.48 463.106 1088.48 463.106 1088.48 463.106C1088.53 462.892 1088.56 462.679 1088.59 462.471C1088.56 462.681 1088.53 462.895 1088.48 463.106Z" fill="#1E4AAD"/>
<path d="M1087.71 465.283C1087.71 465.273 1087.72 465.264 1087.72 465.253C1087.72 465.264 1087.71 465.273 1087.71 465.283Z" fill="#1E4AAD"/>
<path d="M1087.78 465.138C1087.8 465.098 1087.82 465.058 1087.84 465.019C1087.82 465.06 1087.8 465.098 1087.78 465.138Z" fill="#1E4AAD"/>
<path d="M1088.27 463.944C1088.15 464.306 1088.01 464.657 1087.85 464.991C1088.02 464.65 1088.15 464.298 1088.26 463.944H1088.27Z" fill="#1E4AAD"/>
<path d="M714.762 351.049V345.091H706.817V311.617H703.726V297.921H701.079V291.822H697.119V297.921H690.513V311.617H681.99V320.1H674.596V326.581H666.762V248.488H653.412V236.13H650.376V233.537H647.893V230.226H628.86V233.537H627.121V236.13H625.163V302.887H609.164V326.581H600.668V248.488H598.791V244.735H596.71V243.259H589.178V244.735H587.606V242.805H581.896V238.335H579.372V242.805H578.957V244.735H577.164V248.488H573.524V348.401H566.943V343.933H562.558V338.802H561.896V316.788H551.137V338.802H548.82V343.933H547.329V324.319H538.061V300.817H536.959V221.123H538.171V215.936H505.952V221.123H506.945V300.817H501.979V208.296H497.346V192.324H484.313L478.147 185.806V164.187H476.325V183.881V192.324V200.434V204.075V208.296H471.194V258.528H454.975V332.678H437.429V238.335H413.596V208.212H412.107V204.075H390.423V208.212H388.108V293.699H371.971V303.699H363.281V241.729H354.011V177.427H350.37V173.951L331.336 167.993V177.427H326.868V263.493H321.902V300.817H317.268V193.978H291.117V273.754H283.834V278.06H273.242V266.804H261.765V239.081H252.607V233.537L228.332 228.516V239.081H223.367V298.14H207.202V220.295H200.582V208.212L178.071 212.516V220.295H171.451V301.231H162.844V212.516H160.693V211.303H159.038V202.917H134.211V248.488H123.176V236.13H120.142V233.537H117.659V230.226H98.625V233.537H96.8875V236.13H94.9291V345.809H70.4326V248.488H68.5572V244.735H66.4745V243.259H58.944V244.735H57.3713V242.805H51.6608V238.335H49.1374V242.805H48.7234V244.735H46.93V248.488H43.2886V324.319H33.0828V343.933H31.5926V338.802H29.2761V316.788H18.5166V338.802H17.8551V343.933H13.4688V348.401H6.60027V351.049H-3V469.933H720.057V351.049H714.762Z" fill="#1E4AAD"/>
<rect x="0.236328" y="456" width="576" height="38" fill="#1E4AAD"/>
<rect x="753.236" y="474" width="576" height="38" fill="#1E4AAD"/>
<circle cx="1028" cy="17" r="17" fill="url(#paint0_radial_360:440)"/>
<defs>
<radialGradient id="paint0_radial_360:440" cx="0" cy="0" r="1" gradientUnits="userSpaceOnUse" gradientTransform="translate(1028 17) rotate(90) scale(17)">
<stop offset="0.203085" stop-color="#FF0A0A"/>
<stop offset="1" stop-color="#FF0F0F" stop-opacity="0"/>
</radialGradient>
</defs>
</svg>
